<?xml version="1.0" encoding="UTF-8" standalone="no"?>
<!-- Created with Inkscape (http://www.inkscape.org/) -->

<svg
   width="41.765625mm"
   height="44.621407mm"
   viewBox="0 0 41.765625 44.621406"
   version="1.1"
   id="svg800"
   sodipodi:docname="logo2darktrans.svg"
   inkscape:version="1.1.1 (3bf5ae0d25, 2021-09-20)"
   xmlns:inkscape="http://www.inkscape.org/namespaces/inkscape"
   xmlns:sodipodi="http://sodipodi.sourceforge.net/DTD/sodipodi-0.dtd"
   xmlns="http://www.w3.org/2000/svg"
   xmlns:svg="http://www.w3.org/2000/svg">
  <sodipodi:namedview
     id="namedview802"
     pagecolor="#ffffff"
     bordercolor="#666666"
     borderopacity="1.0"
     inkscape:pageshadow="2"
     inkscape:pageopacity="1"
     inkscape:pagecheckerboard="0"
     inkscape:document-units="mm"
     showgrid="false"
     inkscape:zoom="0.74118967"
     inkscape:cx="-310.98652"
     inkscape:cy="58.689431"
     inkscape:window-width="1920"
     inkscape:window-height="1017"
     inkscape:window-x="-8"
     inkscape:window-y="-8"
     inkscape:window-maximized="1"
     inkscape:current-layer="layer1" />
  <defs
     id="defs797" />
  <g
     inkscape:label="Layer 1"
     inkscape:groupmode="layer"
     id="layer1"
     transform="translate(-84.784103,-113.6608)">
    <path
       fill="#f99c1e"
       d="m 118.72656,127.2315 c -1.28058,7.25223 -2.24896,15.94379 -3.31788,22.63246 -0.20902,1.30175 -0.8202,2.3786 -2.35743,2.159 -0.92869,-0.13494 -1.28588,-1.2065 -1.14036,-2.01083 q 0.34925,-1.92617 1.65365,-7.55386 2.0611,-8.88206 3.683,-15.31409 a 0.33072916,0.33072916 0 0 0 -0.15081,-0.36512 c -2.39713,-1.45256 -2.66965,-3.86821 -1.905,-6.48229 q 0.22489,-0.76729 1.143,-4.26509 a 0.78581249,0.78581249 0 0 1 0.92339,-0.56885 l 0.20373,0.0423 a 0.62970833,0.62706249 12.1 0 1 0.48419,0.74612 l -1.18004,5.54832 a 0.72760416,0.72495832 10.5 0 0 0.59795,0.86783 l 0.0265,0.005 a 0.76729166,0.76729166 0 0 0 0.88636,-0.55827 l 1.55046,-5.90815 a 0.75935416,0.75935416 0 0 1 0.92075,-0.54504 l 0.0661,0.0159 a 0.73289582,0.73554166 13.4 0 1 0.55827,0.91017 q -0.80962,3.00302 -1.17475,5.96371 a 0.57943749,0.58208333 5.2 0 0 0.53975,0.65087 l 0.0238,0.003 a 0.74347916,0.74347916 0 0 0 0.79375,-0.55033 l 1.66953,-6.30238 a 0.64029166,0.64029166 0 0 1 0.78316,-0.45508 l 0.21167,0.0556 a 0.72495832,0.72495832 0 0 1 0.50006,0.93398 q -0.26194,0.76729 -0.85989,3.8444 c -0.635,3.26231 -1.59544,5.62504 -4.94242,6.30502 a 0.24341666,0.2460625 89 0 0 -0.1905,0.19579 z"
       id="path575"
       style="stroke-width:0.264583" />
    <path
       fill="#27363e"
       d="m 122.02062,128.21045 q -0.81227,10.56218 -2.73579,20.92855 c -0.16404,0.88899 -0.23813,1.8706 -0.44185,2.83898 q -0.7329,3.47927 -3.63803,4.69634 -1.15358,0.4842 -3.66712,0.52917 -4.3815,0.0794 -7.80256,0.0767 -2.00819,0 -2.91042,-0.30164 c -2.333617,-0.78581 -4.013727,-2.67492 -4.532307,-5.09587 q -0.72231,-3.37078 -2.16429,-11.92213 -0.77259,-4.58522 -0.91811,-7.01409 a 0.1905,0.1905 0 0 0 -0.23548,-0.17462 l -2.70668,0.65616 a 0.34395833,0.34395833 0 0 0 -0.26459,0.35719 q 0.27252,4.28889 0.82021,8.03539 c 0.21167,1.4605 0.21167,2.91041 -1.49754,3.02947 a 0.92604165,0.95514582 51.3 0 1 -0.28046,-0.0264 q -1.39171,-0.36513 -1.53458,-1.95526 -0.33073,-3.64862 -0.85196,-9.06198 c -0.16404,-1.68276 -0.27252,-2.96863 1.25677,-3.96082 q 0.34396,-0.22225 1.09273,-0.23813 2.00554,-0.0397 3.63802,0.12965 a 0.13758333,0.14022916 3.5 0 0 0.15346,-0.13758 q 0.005,-0.63236 -0.0529,-0.96573 -0.26194,-1.45521 1.143,-1.6219 2.89984,-0.34396 6.191247,-0.39158 5.97694,-0.09 12.94342,0.0132 a 0.33602083,0.33602083 0 0 1 0.26458,0.12964 l 1.05833,1.34673 a 0.28575,0.28575 0 0 1 -0.22489,0.46302 H 95.316253 a 0.0873125,0.0873125 0 0 0 -0.0873,0.0979 q 1.4314,10.41135 3.22792,21.20106 0.36513,2.1881 0.80169,2.90248 c 1.066267,1.74625 2.801937,2.1881 4.799537,2.18016 q 7.27339,-0.0318 7.80521,-0.0529 c 2.17223,-0.09 3.88673,-0.92869 4.34975,-3.16971 q 0.96573,-4.66461 4.35768,-22.73829 a 0.396875,0.39952083 78.6 0 1 0.17198,-0.25664 l 1.03982,-0.66675 a 0.15345833,0.15345833 0 0 1 0.23812,0.14023 z"
       id="path577"
       style="stroke-width:0.264583" />
    <rect
       fill="#27363e"
       x="99.761765"
       y="132.30339"
       transform="rotate(-0.30000028)"
       width="7.9057498"
       height="1.5292916"
       rx="0.57414585"
       id="rect579"
       style="stroke-width:0.264583" />
    <rect
       fill="#27363e"
       x="109.54339"
       y="130.9467"
       transform="rotate(2.9999996)"
       width="5.9848752"
       height="1.3864166"
       rx="0.45772916"
       id="rect593"
       style="stroke-width:0.264583" />
    <path
       fill="#27363e"
       d="m 110.93193,152.6606 a 0.13229166,0.12964583 74.2 0 1 -0.10848,0.1958 q -3.57187,0.17198 -6.96912,0.10318 c -3.06652,-0.0635 -3.74385,-1.99496 -4.175117,-4.84187 q -0.36248,-2.38654 -1.43934,-8.31321 a 0.1190625,0.1190625 0 0 1 0.13494,-0.13758 q 4.595807,0.63235 9.577917,0.32279 2.52677,-0.15611 4.5085,-0.66411 a 0.0635,0.06614583 89.2 0 1 0.0794,0.0767 q -1.37319,6.43732 -2.07169,9.87161 c -0.28839,1.42081 -0.24077,2.12989 0.46302,3.38666 z m -2.63794,-9.07428 a 0.84402082,0.84402082 0 0 0 -0.84551,-0.84254 l -3.31258,0.006 a 0.84402082,0.84402082 0 0 0 -0.84254,0.8455 l 1.1e-4,0.0688 a 0.84402082,0.84402082 0 0 0 0.8455,0.84252 l 3.31258,-0.006 a 0.84402082,0.84402082 0 0 0 0.84254,-0.8455 z m 0.16885,4.99708 a 0.85460416,0.85460416 0 0 0 -0.86204,-0.84712 l -3.13782,0.0274 a 0.85460416,0.85460416 0 0 0 -0.84712,0.86201 l 7.9e-4,0.10054 a 0.85460416,0.85460416 0 0 0 0.86204,0.84713 l 3.13783,-0.0274 a 0.85460416,0.85460416 0 0 0 0.84712,-0.86202 z"
       id="path611"
       style="stroke-width:0.264583" />
  </g>
</svg>
