<?xml version="1.0" encoding="UTF-8" standalone="no"?>
<svg
   version="1.1"
   viewBox="0 0 682.21106 180.09074"
   id="svg633"
   sodipodi:docname="logodarktrans.svg"
   width="682.21106"
   height="180.09074"
   inkscape:version="1.1.1 (3bf5ae0d25, 2021-09-20)"
   xmlns:inkscape="http://www.inkscape.org/namespaces/inkscape"
   xmlns:sodipodi="http://sodipodi.sourceforge.net/DTD/sodipodi-0.dtd"
   xmlns="http://www.w3.org/2000/svg"
   xmlns:svg="http://www.w3.org/2000/svg">
  <defs
     id="defs637" />
  <sodipodi:namedview
     id="namedview635"
     pagecolor="#ffffff"
     bordercolor="#666666"
     borderopacity="1.0"
     inkscape:pageshadow="2"
     inkscape:pageopacity="0.0"
     inkscape:pagecheckerboard="0"
     showgrid="false"
     inkscape:zoom="1.1844802"
     inkscape:cx="395.53214"
     inkscape:cy="90.757108"
     inkscape:window-width="1920"
     inkscape:window-height="1017"
     inkscape:window-x="-8"
     inkscape:window-y="-8"
     inkscape:window-maximized="1"
     inkscape:current-layer="svg633" />
  <g
     stroke-width="2"
     fill="none"
     stroke-linecap="butt"
     id="g571"
     transform="translate(-181.51422,-250.00408)">
    <path
       stroke="#fcce8f"
       vector-effect="non-scaling-stroke"
       d="m 310.44,297.91 c 12.65,-2.57 16.28,-11.5 18.68,-23.83 q 2.26,-11.63 3.25,-14.53 a 2.74,2.74 0 0 0 -1.89,-3.53 l -0.8,-0.21 a 2.42,2.42 0 0 0 -2.96,1.72 l -6.31,23.82 a 2.81,2.81 0 0 1 -3,2.08 l -0.09,-0.01 a 2.2,2.19 -84.8 0 1 -2.04,-2.46 q 1.38,-11.19 4.44,-22.54 a 2.78,2.77 -76.6 0 0 -2.11,-3.44 l -0.25,-0.06 a 2.87,2.87 0 0 0 -3.48,2.06 l -5.86,22.33 a 2.9,2.9 0 0 1 -3.35,2.11 l -0.1,-0.02 a 2.75,2.74 10.5 0 1 -2.26,-3.28 l 4.46,-20.97 a 2.38,2.37 12.1 0 0 -1.83,-2.82 l -0.77,-0.16 a 2.97,2.97 0 0 0 -3.49,2.15 q -3.47,13.22 -4.32,16.12 c -2.89,9.88 -1.86,19.01 7.2,24.5 a 1.25,1.25 0 0 1 0.57,1.38 q -6.13,24.31 -13.92,57.88 -4.93,21.27 -6.25,28.55 c -0.55,3.04 0.8,7.09 4.31,7.6 5.81,0.83 8.12,-3.24 8.91,-8.16 4.04,-25.28 7.7,-58.13 12.54,-85.54 a 0.93,0.92 -1 0 1 0.72,-0.74"
       id="path513" />
    <path
       stroke="#939b9f"
       vector-effect="non-scaling-stroke"
       d="m 322.17,302.35 a 0.58,0.58 0 0 0 -0.9,-0.53 l -3.93,2.52 a 1.51,1.5 -11.4 0 0 -0.65,0.97 q -12.82,68.31 -16.47,85.94 c -1.75,8.47 -8.23,11.64 -16.44,11.98 q -2.01,0.08 -29.5,0.2 c -7.55,0.03 -14.11,-1.64 -18.14,-8.24 q -1.65,-2.7 -3.03,-10.97 -6.79,-40.78 -12.2,-80.13 a 0.33,0.33 0 0 1 0.33,-0.37 h 71.08 a 1.08,1.08 0 0 0 0.85,-1.75 l -4,-5.09 a 1.27,1.27 0 0 0 -1,-0.49 q -26.33,-0.39 -48.92,-0.05 -12.44,0.18 -23.4,1.48 -5.31,0.63 -4.32,6.13 0.22,1.26 0.2,3.65 a 0.53,0.52 -86.5 0 1 -0.58,0.52 q -6.17,-0.64 -13.75,-0.49 -2.83,0.06 -4.13,0.9 c -5.78,3.75 -5.37,8.61 -4.75,14.97 q 1.97,20.46 3.22,34.25 0.54,6.01 5.8,7.39 a 3.61,3.5 -38.7 0 0 1.06,0.1 c 6.46,-0.45 6.46,-5.93 5.66,-11.45 q -2.07,-14.16 -3.1,-30.37 a 1.3,1.3 0 0 1 1,-1.35 l 10.23,-2.48 a 0.72,0.72 0 0 1 0.89,0.66 q 0.55,9.18 3.47,26.51 5.45,32.32 8.18,45.06 c 1.96,9.15 8.31,16.29 17.13,19.26 q 3.41,1.14 11,1.14 12.93,0.01 29.49,-0.29 9.5,-0.17 13.86,-2 10.98,-4.6 13.75,-17.75 c 0.77,-3.66 1.05,-7.37 1.67,-10.73 q 7.27,-39.18 10.34,-79.1"
       id="path515" />
    <path
       stroke="#939b9f"
       vector-effect="non-scaling-stroke"
       d="m 270.546,317.8518 a 2.17,2.17 0 0 0 -2.1813,-2.1586 l -25.5397,0.1337 a 2.17,2.17 0 0 0 -2.1586,2.1813 l 0.008,1.44 a 2.17,2.17 0 0 0 2.1813,2.1586 l 25.5397,-0.1337 a 2.17,2.17 0 0 0 2.1586,-2.1813 l -0.008,-1.44"
       id="path517" />
    <path
       stroke="#939b9f"
       vector-effect="non-scaling-stroke"
       d="m 357.55,357.12 v -39.56 a 0.54,0.54 0 0 0 -0.54,-0.54 H 345.7 a 0.55,0.55 0 0 0 -0.55,0.55 v 67.13 a 0.63,0.62 0 0 0 0.63,0.62 h 11.15 a 0.69,0.69 0 0 0 0.69,-0.71 q -0.21,-7.37 -0.05,-17.65 a 1.3,1.25 -78.1 0 1 1.76,-1.19 q 0.1,0.04 0.58,0.81 8.78,13.91 11.56,18.26 a 1.02,1.02 0 0 0 0.86,0.47 h 13.56 a 0.52,0.52 0 0 0 0.44,-0.8 l -15.61,-24.3 a 0.61,0.61 0 0 1 0.03,-0.7 l 14.62,-19.79 a 0.42,0.41 18.1 0 0 -0.34,-0.66 h -13.31 a 1.71,1.71 0 0 0 -1.41,0.74 l -12.23,17.49 a 0.29,0.29 0 0 1 -0.53,-0.17"
       id="path519" />
    <path
       stroke="#939b9f"
       vector-effect="non-scaling-stroke"
       d="m 492.84,317.18 h -11.93 a 0.53,0.53 0 0 0 -0.53,0.53 v 66.91 a 0.75,0.74 -90 0 0 0.74,0.75 h 11.6 a 0.65,0.65 0 0 0 0.65,-0.66 q -0.18,-26.45 -0.13,-29.48 0.02,-1.3 1.76,-2.97 c 4.65,-4.42 13.53,-5.01 13.52,3.51 q 0,15.18 -0.13,28.9 a 0.71,0.71 0 0 0 0.71,0.72 h 11.8 a 0.5,0.5 0 0 0 0.5,-0.51 q -0.13,-12.05 -0.09,-29.04 c 0.02,-11.17 -4.93,-18.13 -16.97,-17.06 q -6.05,0.53 -10.56,4.77 a 0.35,0.34 -21.6 0 1 -0.58,-0.25 v -25.76 a 0.36,0.36 0 0 0 -0.36,-0.36"
       id="path521" />
    <path
       stroke="#939b9f"
       vector-effect="non-scaling-stroke"
       d="m 402.53,325.73 a 7.58,7.58 0 0 0 -7.58,-7.58 7.58,7.58 0 0 0 -7.58,7.58 7.58,7.58 0 0 0 7.58,7.58 7.58,7.58 0 0 0 7.58,-7.58"
       id="path523" />
    <path
       stroke="#939b9f"
       vector-effect="non-scaling-stroke"
       d="m 731.6783,318.1206 a 7.67,7.45 -94.2 0 0 -6.8683,8.195 7.67,7.45 -94.2 0 0 7.9917,7.1038 7.67,7.45 -94.2 0 0 6.8683,-8.195 7.67,7.45 -94.2 0 0 -7.9917,-7.1038"
       id="path525" />
    <path
       stroke="#939b9f"
       vector-effect="non-scaling-stroke"
       d="m 405.42,349.44 h 6.57 a 0.78,0.78 0 0 1 0.78,0.78 q 0.01,6.42 -0.09,22.66 -0.03,5.68 1.43,7.97 2.53,3.98 7.54,4.77 5.22,0.82 13.36,-0.12 a 1.94,1.94 0 0 0 1.73,-1.93 v -6.81 a 1.34,1.34 0 0 0 -1.91,-1.21 c -3.22,1.51 -9.33,1.97 -9.3,-3.52 q 0.09,-14.83 -0.04,-21.9 a 0.64,0.64 0 0 1 0.64,-0.66 h 10.02 a 0.61,0.61 0 0 0 0.61,-0.61 v -8.88 a 0.88,0.88 0 0 0 -0.88,-0.88 h -9.68 a 0.61,0.61 0 0 1 -0.61,-0.61 v -10.78 a 0.65,0.64 90 0 0 -0.64,-0.65 h -11.62 a 0.62,0.61 0 0 0 -0.62,0.61 v 10.91 a 0.54,0.53 90 0 1 -0.53,0.54 h -6.79 a 0.57,0.57 0 0 0 -0.57,0.57 v 9.14 a 0.61,0.6 90 0 0 0.6,0.61"
       id="path527" />
    <path
       stroke="#939b9f"
       vector-effect="non-scaling-stroke"
       d="m 696.16,339.11 h -14.4 a 0.41,0.41 0 0 0 -0.21,0.77 q 5.81,3.4 8.71,9.01 a 1.05,1.04 -13.5 0 0 0.93,0.56 h 4.84 a 0.67,0.66 90 0 1 0.66,0.67 q 0.02,20.67 -0.01,23.9 c -0.08,7.42 5.45,11.95 12.59,12.02 q 5.58,0.06 9.77,-0.58 a 2.22,2.22 0 0 0 1.88,-2.19 v -6.53 a 1.34,1.34 0 0 0 -1.93,-1.2 q -1.8,0.89 -4.71,0.87 c -4.02,-0.02 -4.81,-2.49 -4.83,-6.18 q -0.05,-10.26 -0.02,-20.37 a 0.38,0.37 90 0 1 0.37,-0.38 h 10.39 a 0.55,0.55 0 0 0 0.55,-0.55 v -9.24 a 0.57,0.57 0 0 0 -0.57,-0.57 h -10.3 a 0.46,0.46 0 0 1 -0.46,-0.46 v -11.07 a 0.52,0.52 0 0 0 -0.52,-0.52 h -11.56 a 0.62,0.62 0 0 0 -0.62,0.62 v 10.87 a 0.55,0.55 0 0 1 -0.55,0.55"
       id="path529" />
    <path
       stroke="#939b9f"
       vector-effect="non-scaling-stroke"
       d="m 271.0411,336.5931 a 1.73,1.73 0 0 0 -1.6371,-1.8181 l -19.1338,-1.0028 a 1.73,1.73 0 0 0 -1.8181,1.6371 l -0.0932,1.7776 a 1.73,1.73 0 0 0 1.6371,1.8181 l 19.1338,1.0028 a 1.73,1.73 0 0 0 1.8181,-1.6371 l 0.0932,-1.7776"
       id="path531" />
    <path
       stroke="#939b9f"
       vector-effect="non-scaling-stroke"
       d="m 436.79,362.38 c 0.05,14.4 8.64,23.38 22.98,23.77 q 9.93,0.27 16.9,-6.76 a 0.5,0.5 0 0 0 -0.01,-0.7 l -6.02,-6.03 a 0.77,0.77 0 0 0 -1.08,0 q -4.36,4.27 -10.56,3.42 c -7.1,-0.97 -9.29,-7.4 -9.31,-13.74 -0.03,-6.35 2.12,-12.79 9.2,-13.82 q 6.2,-0.89 10.59,3.35 a 0.77,0.77 0 0 0 1.08,-0.01 l 5.98,-6.08 a 0.5,0.5 0 0 0 0,-0.7 q -7.02,-6.97 -16.95,-6.63 c -14.33,0.5 -22.86,9.53 -22.8,23.93"
       id="path533" />
    <path
       stroke="#939b9f"
       vector-effect="non-scaling-stroke"
       d="m 672.79,380.85 0.5,3.72 a 0.9,0.89 85.9 0 0 0.88,0.77 h 9.42 a 0.69,0.69 0 0 0 0.69,-0.69 q 0.07,-15.94 -0.1,-28.66 c -0.22,-15.97 -14.15,-19.94 -27.13,-16.64 q -3.13,0.8 -7.73,2.79 a 1.92,1.91 -15.7 0 0 -1.14,2.02 l 0.94,6.95 a 1.07,1.07 0 0 0 1.55,0.81 q 5.8,-2.99 12.59,-2.94 8.17,0.05 7.86,7.93 a 0.64,0.64 0 0 1 -0.65,0.61 c -9.18,-0.09 -24.46,0.67 -26.17,12.48 q -1.6,11.06 7.6,14.8 c 2.76,1.13 5.03,1 8.71,1.06 q 6.5,0.1 11.66,-5.19 a 0.31,0.3 63.8 0 1 0.52,0.18"
       id="path535" />
    <path
       stroke="#939b9f"
       vector-effect="non-scaling-stroke"
       d="m 743.41,362.79 c 0.32,13.79 9.32,23.23 23.31,23.3 14.88,0.08 23.23,-10.16 22.9,-24.34 -0.31,-13.8 -9.31,-23.23 -23.3,-23.3 -14.88,-0.08 -23.23,10.15 -22.91,24.34"
       id="path537" />
    <path
       stroke="#939b9f"
       vector-effect="non-scaling-stroke"
       d="m 538.3,365.52 h 27.19 a 0.65,0.65 0 0 0 0.65,-0.58 c 1.14,-10.78 -2,-22.65 -13.37,-25.76 -9.83,-2.7 -20.22,1.41 -24.98,10.65 q -2.39,4.63 -2.66,10.89 c -0.45,10.05 3.31,19.12 12.66,23.47 3.87,1.8 8.87,2.07 13.18,1.72 q 8.32,-0.68 14.08,-6.39 a 0.71,0.71 0 0 0 0,-1 l -5.02,-5.02 a 0.68,0.67 48.3 0 0 -0.9,-0.06 c -8.06,6.32 -19.77,4.07 -21.31,-7.38 a 0.48,0.48 0 0 1 0.48,-0.54"
       id="path539" />
    <path
       stroke="#939b9f"
       vector-effect="non-scaling-stroke"
       d="m 611.84,384.6 q -0.06,-0.62 -0.4,-29.83 c -0.09,-7.83 -2.47,-14.16 -10.6,-15.8 q -11.47,-2.31 -18.39,5.97 a 0.24,0.24 0 0 1 -0.42,-0.12 l -0.7,-5.2 a 0.56,0.55 -3.5 0 0 -0.55,-0.48 h -9.98 a 0.47,0.46 -90 0 0 -0.46,0.47 v 45.08 a 0.65,0.65 0 0 0 0.65,0.65 h 11.74 a 0.51,0.51 0 0 0 0.51,-0.51 v -29.68 a 1.33,1.31 62.2 0 1 0.22,-0.73 q 3.51,-5.32 9.1,-5.37 c 3.58,-0.03 6.03,1.98 6.13,5.48 q 0.17,5.7 0.06,30.09 a 0.72,0.72 0 0 0 0.72,0.72 h 11.73 a 0.65,0.65 0 0 0 0.64,-0.74"
       id="path541" />
    <path
       stroke="#939b9f"
       vector-effect="non-scaling-stroke"
       d="m 629,345.62 -0.83,-6.1 a 0.51,0.5 86.1 0 0 -0.5,-0.44 h -9.9 a 0.56,0.55 90 0 0 -0.55,0.56 v 45.06 a 0.67,0.67 0 0 0 0.67,0.67 h 11.61 a 0.7,0.7 0 0 0 0.7,-0.69 q 0.02,-5.79 -0.12,-23.17 -0.04,-4.44 1.26,-6.28 c 2.96,-4.18 7.12,-3.88 11.73,-3.79 a 0.61,0.6 -89.1 0 0 0.62,-0.61 v -11.14 a 0.83,0.82 -86.9 0 0 -0.73,-0.82 q -9.31,-1.01 -13.45,6.84 A 0.27,0.27 0 0 1 629,345.62"
       id="path543" />
    <path
       stroke="#939b9f"
       vector-effect="non-scaling-stroke"
       d="m 401.29,339.53 a 0.43,0.43 0 0 0 -0.43,-0.43 h -11.8 a 0.43,0.43 0 0 0 -0.43,0.43 v 45.34 a 0.43,0.43 0 0 0 0.43,0.43 h 11.8 a 0.43,0.43 0 0 0 0.43,-0.43 v -45.34"
       id="path545" />
    <path
       stroke="#939b9f"
       vector-effect="non-scaling-stroke"
       d="m 738.91,339.66 a 0.53,0.53 0 0 0 -0.53,-0.53 h -11.54 a 0.53,0.53 0 0 0 -0.53,0.53 v 45.14 a 0.53,0.53 0 0 0 0.53,0.53 h 11.54 a 0.53,0.53 0 0 0 0.53,-0.53 v -45.14"
       id="path547" />
    <path
       stroke="#939b9f"
       vector-effect="non-scaling-stroke"
       d="m 280.26,394.76 c -2.66,-4.75 -2.84,-7.43 -1.75,-12.8 q 2.64,-12.98 7.83,-37.31 a 0.25,0.24 -0.8 0 0 -0.3,-0.29 q -7.49,1.92 -17.04,2.51 -18.83,1.17 -36.2,-1.22 a 0.45,0.45 0 0 0 -0.51,0.52 q 4.07,22.4 5.44,31.42 c 1.63,10.76 4.19,18.06 15.78,18.3 q 12.84,0.26 26.34,-0.39 a 0.5,0.49 74.2 0 0 0.41,-0.74"
       id="path549" />
    <path
       stroke="#fcce8f"
       vector-effect="non-scaling-stroke"
       d="m 854.8,391.1 h 2.58 a 1.31,1.31 0 0 0 1.31,-1.24 q 0.17,-3.18 -0.37,-9.62 c -0.53,-6.26 -5.92,-8.15 -10.45,-4.29 a 0.88,0.88 0 0 1 -1.23,-0.09 q -2.16,-2.51 -5.7,-1.57 c -0.94,0.25 -2.03,1.25 -2.48,1.35 a 0.89,0.89 0 0 1 -0.79,-0.21 q -1.39,-1.29 -3.54,-1 a 0.67,0.67 0 0 0 -0.58,0.66 v 15.05 a 1.06,1.05 0 0 0 1.06,1.05 h 2.95 a 0.95,0.94 0.3 0 0 0.95,-0.93 l 0.17,-9.75 a 2.66,2.66 0 0 1 2.3,-2.59 l 0.09,-0.01 a 2.12,2.12 0 0 1 2.48,2.12 l -0.14,9.9 a 1.26,1.26 0 0 0 1.26,1.28 h 2.65 a 1.33,1.32 -0.4 0 0 1.33,-1.34 l -0.09,-9.38 a 2.54,2.53 -2.2 0 1 2.37,-2.55 l 0.23,-0.03 a 2.22,2.22 0 0 1 2.49,2.21 l -0.03,9.8 a 1.18,1.18 0 0 0 1.18,1.18"
       id="path551" />
    <path
       stroke="#fcce8f"
       vector-effect="non-scaling-stroke"
       d="m 797.32,382.75 c 0.01,7.67 7.27,10.47 13.46,7.46 a 1.52,1.52 0 0 0 0.5,-2.34 l -0.11,-0.13 a 2.55,2.55 0 0 0 -2.97,-0.69 c -3.68,1.62 -5.88,-0.88 -5.89,-4.31 -0.01,-3.42 2.19,-5.93 5.88,-4.33 a 2.55,2.55 0 0 0 2.96,-0.7 l 0.11,-0.13 a 1.52,1.52 0 0 0 -0.5,-2.34 c -6.21,-2.99 -13.46,-0.16 -13.44,7.51"
       id="path553" />
    <path
       stroke="#fcce8f"
       vector-effect="non-scaling-stroke"
       d="m 830.66,382.77 a 8.79,8.79 0 0 0 -8.79,-8.79 8.79,8.79 0 0 0 -8.79,8.79 8.79,8.79 0 0 0 8.79,8.79 8.79,8.79 0 0 0 8.79,-8.79"
       id="path555" />
    <path
       stroke="#fcce8f"
       vector-effect="non-scaling-stroke"
       d="m 794.63,388.38 a 3.04,3.04 0 0 0 -3.04,-3.04 3.04,3.04 0 0 0 -3.04,3.04 3.04,3.04 0 0 0 3.04,3.04 3.04,3.04 0 0 0 3.04,-3.04"
       id="path557" />
    <path
       stroke="#939b9f"
       vector-effect="non-scaling-stroke"
       d="m 670.75,365.47 q -3.07,-0.12 -6.38,0.26 c -3.95,0.46 -8.34,3.33 -6.72,7.63 2.04,5.42 13.24,2.31 13.57,-3.29 q 0.15,-2.57 0.04,-4.11 a 0.54,0.53 88.8 0 0 -0.51,-0.49"
       id="path559" />
    <path
       stroke="#939b9f"
       vector-effect="non-scaling-stroke"
       d="m 757.1,362.41 c 0.08,6.52 1.45,13.87 9.63,13.76 8.19,-0.1 9.37,-7.48 9.29,-14 -0.08,-6.52 -1.45,-13.87 -9.64,-13.76 -8.18,0.1 -9.36,7.48 -9.28,14"
       id="path561" />
    <path
       stroke="#939b9f"
       vector-effect="non-scaling-stroke"
       d="m 538.39,358 16.16,-0.08 a 0.35,0.35 0 0 0 0.34,-0.35 v -0.41 a 9.36,8.24 89.7 0 0 -8.29,-9.32 h -0.38 a 9.36,8.24 89.7 0 0 -8.19,9.4 v 0.41 a 0.35,0.35 0 0 0 0.36,0.35"
       id="path563" />
    <path
       stroke="#939b9f"
       vector-effect="non-scaling-stroke"
       d="m 270.2898,360.4635 a 3.19,3.19 0 0 0 -3.1956,-3.1844 l -12.52,0.0218 a 3.19,3.19 0 0 0 -3.1844,3.1956 l 4e-4,0.26 a 3.19,3.19 0 0 0 3.1956,3.1844 l 12.52,-0.0218 a 3.19,3.19 0 0 0 3.1844,-3.1956 l -4e-4,-0.26"
       id="path565" />
    <path
       stroke="#939b9f"
       vector-effect="non-scaling-stroke"
       d="m 270.928,379.3501 a 3.23,3.23 0 0 0 -3.2581,-3.2017 l -11.8595,0.1035 a 3.23,3.23 0 0 0 -3.2017,3.258 l 0.003,0.38 a 3.23,3.23 0 0 0 3.2581,3.2017 l 11.8595,-0.1035 a 3.23,3.23 0 0 0 3.2017,-3.258 l -0.003,-0.38"
       id="path567" />
    <path
       stroke="#fcce8f"
       vector-effect="non-scaling-stroke"
       d="m 822.0438,377.7627 a 4.94,3.78 -88.1 0 0 -3.9417,4.812 4.94,3.78 -88.1 0 0 3.6141,5.0626 4.94,3.78 -88.1 0 0 3.9417,-4.812 4.94,3.78 -88.1 0 0 -3.6141,-5.0626"
       id="path569" />
  </g>
  <path
     fill="#f99c1e"
     d="m 128.20578,48.64592 c -4.84,27.41 -8.5,60.26 -12.54,85.54 -0.79,4.92 -3.1,8.99 -8.91,8.16 -3.51,-0.51 -4.86,-4.56 -4.31,-7.6 q 1.32,-7.28 6.25,-28.55 7.79,-33.57 13.92,-57.88 a 1.25,1.25 0 0 0 -0.57,-1.38 c -9.06,-5.49 -10.09,-14.62 -7.2,-24.5 q 0.85,-2.9 4.32,-16.12 a 2.97,2.97 0 0 1 3.49,-2.15 l 0.77,0.16 a 2.38,2.37 12.1 0 1 1.83,2.82 l -4.46,20.97 a 2.75,2.74 10.5 0 0 2.26,3.28 l 0.1,0.02 a 2.9,2.9 0 0 0 3.35,-2.11 l 5.86,-22.33 a 2.87,2.87 0 0 1 3.48,-2.06 l 0.25,0.06 a 2.77,2.78 13.4 0 1 2.11,3.44 q -3.06,11.35 -4.44,22.54 a 2.19,2.2 5.2 0 0 2.04,2.46 l 0.09,0.01 a 2.81,2.81 0 0 0 3,-2.08 l 6.31,-23.82 a 2.42,2.42 0 0 1 2.96,-1.72 l 0.8,0.21 a 2.74,2.74 0 0 1 1.89,3.53 q -0.99,2.9 -3.25,14.53 c -2.4,12.33 -6.03,21.26 -18.68,23.83 a 0.92,0.93 89 0 0 -0.72,0.74 z"
     id="path575" />
  <path
     fill="#27363e"
     d="m 140.65578,52.34592 q -3.07,39.92 -10.34,79.1 c -0.62,3.36 -0.9,7.07 -1.67,10.73 q -2.77,13.15 -13.75,17.75 -4.36,1.83 -13.86,2 -16.56,0.3 -29.49,0.29 -7.59,0 -11,-1.14 c -8.82,-2.97 -15.17,-10.11 -17.13,-19.26 q -2.73,-12.74 -8.18,-45.06 -2.92,-17.33 -3.47,-26.51 a 0.72,0.72 0 0 0 -0.89,-0.66 l -10.23,2.48 a 1.3,1.3 0 0 0 -1,1.35 q 1.03,16.21 3.1,30.37 c 0.8,5.52 0.8,11 -5.66,11.45 a 3.5,3.61 51.3 0 1 -1.06,-0.1 q -5.26,-1.38 -5.8,-7.39 -1.25,-13.79 -3.22,-34.25 c -0.62,-6.36 -1.03,-11.22 4.75,-14.97 q 1.3,-0.84 4.13,-0.9 7.58,-0.15 13.75,0.49 a 0.52,0.53 3.5 0 0 0.58,-0.52 q 0.02,-2.39 -0.2,-3.65 -0.99,-5.5 4.32,-6.13 10.96,-1.3 23.4,-1.48 22.59,-0.34 48.92,0.05 a 1.27,1.27 0 0 1 1,0.49 l 4,5.09 a 1.08,1.08 0 0 1 -0.85,1.75 h -71.08 a 0.33,0.33 0 0 0 -0.33,0.37 q 5.41,39.35 12.2,80.13 1.38,8.27 3.03,10.97 c 4.03,6.6 10.59,8.27 18.14,8.24 q 27.49,-0.12 29.5,-0.2 c 8.21,-0.34 14.69,-3.51 16.44,-11.98 q 3.65,-17.63 16.47,-85.94 a 1.5,1.51 78.6 0 1 0.65,-0.97 l 3.93,-2.52 a 0.58,0.58 0 0 1 0.9,0.53 z"
     id="path577" />
  <rect
     fill="#27363e"
     x="58.795334"
     y="66.142944"
     transform="rotate(-0.3)"
     width="29.879999"
     height="5.7800002"
     rx="2.1700001"
     id="rect579" />
  <path
     fill="#27363e"
     d="m 176.03578,107.11592 c -0.007,0.28953 0.36756,0.40978 0.53,0.17 l 12.23,-17.49 c 0.31947,-0.46381 0.84682,-0.74057 1.41,-0.74 h 13.31 c 0.34541,0.002 0.54538,0.39051 0.34,0.66 l -14.62,19.79 c -0.15637,0.20375 -0.16836,0.48362 -0.03,0.7 l 15.61,24.3 c 0.22163,0.34683 -0.0284,0.80144 -0.44,0.8 h -13.56 c -0.34808,3.4e-4 -0.67231,-0.17685 -0.86,-0.47 -1.85333,-2.9 -5.70667,-8.98667 -11.56,-18.26 -0.32,-0.51333 -0.51333,-0.78333 -0.58,-0.81 -0.8185,-0.36316 -1.74275,0.26176 -1.76,1.19 -0.10667,6.85333 -0.09,12.73667 0.05,17.65 0.0113,0.38886 -0.30097,0.71016 -0.69,0.71 h -11.15 c -0.34794,0 -0.63,-0.27758 -0.63,-0.62 v -67.13 c 0,-0.30376 0.24624,-0.55 0.55,-0.55 h 11.31 c 0.29823,0 0.54,0.24177 0.54,0.54 v 11.69834 z"
     id="path581"
     sodipodi:nodetypes="cccccccccccccccccsssssscc" />
  <path
     fill="#27363e"
     d="m 311.32578,67.17592 a 0.36,0.36 0 0 1 0.36,0.36 v 25.76 a 0.34,0.35 68.4 0 0 0.58,0.25 q 4.51,-4.24 10.56,-4.77 c 12.04,-1.07 16.99,5.89 16.97,17.06 q -0.04,16.99 0.09,29.04 a 0.5,0.5 0 0 1 -0.5,0.51 h -11.8 a 0.71,0.71 0 0 1 -0.71,-0.72 q 0.13,-13.72 0.13,-28.9 c 0.01,-8.52 -8.87,-7.93 -13.52,-3.51 q -1.74,1.67 -1.76,2.97 -0.05,3.03 0.13,29.48 a 0.65,0.65 0 0 1 -0.65,0.66 h -11.6 a 0.74,0.75 0 0 1 -0.74,-0.75 v -66.91 a 0.53,0.53 0 0 1 0.53,-0.53 z"
     id="path583" />
  <circle
     fill="#27363e"
     cx="213.43579"
     cy="75.725929"
     r="7.5799999"
     id="circle585" />
  <ellipse
     fill="#27363e"
     cx="-115.89661"
     cy="543.69781"
     transform="rotate(-94.2)"
     rx="7.6700001"
     ry="7.4499998"
     id="ellipse587" />
  <path
     fill="#27363e"
     d="m 223.30578,98.82592 v -9.14 a 0.57,0.57 0 0 1 0.57,-0.57 h 6.79 a 0.53,0.54 0 0 0 0.53,-0.54 v -10.91 a 0.62,0.61 0 0 1 0.62,-0.61 h 11.62 a 0.64,0.65 0 0 1 0.64,0.65 v 10.78 a 0.61,0.61 0 0 0 0.61,0.61 h 9.68 a 0.88,0.88 0 0 1 0.88,0.88 v 8.88 a 0.61,0.61 0 0 1 -0.61,0.61 h -10.02 a 0.64,0.64 0 0 0 -0.64,0.66 q 0.13,7.07 0.04,21.9 c -0.03,5.49 6.08,5.03 9.3,3.52 a 1.34,1.34 0 0 1 1.91,1.21 v 6.81 a 1.94,1.94 0 0 1 -1.73,1.93 q -8.14,0.94 -13.36,0.12 -5.01,-0.79 -7.54,-4.77 -1.46,-2.29 -1.43,-7.97 0.1,-16.24 0.09,-22.66 a 0.78,0.78 0 0 0 -0.78,-0.78 h -6.57 a 0.6,0.61 0 0 1 -0.6,-0.61 z"
     id="path589" />
  <path
     fill="#27363e"
     d="m 515.19578,88.55592 v -10.87 a 0.62,0.62 0 0 1 0.62,-0.62 h 11.56 a 0.52,0.52 0 0 1 0.52,0.52 v 11.07 a 0.46,0.46 0 0 0 0.46,0.46 h 10.3 a 0.57,0.57 0 0 1 0.57,0.57 v 9.24 a 0.55,0.55 0 0 1 -0.55,0.55 h -10.39 a 0.37,0.38 0 0 0 -0.37,0.38 q -0.03,10.11 0.02,20.37 c 0.02,3.69 0.81,6.16 4.83,6.18 q 2.91,0.02 4.71,-0.87 a 1.34,1.34 0 0 1 1.93,1.2 v 6.53 a 2.22,2.22 0 0 1 -1.88,2.19 q -4.19,0.64 -9.77,0.58 c -7.14,-0.07 -12.67,-4.6 -12.59,-12.02 q 0.03,-3.23 0.01,-23.9 a 0.66,0.67 0 0 0 -0.66,-0.67 h -4.84 a 1.04,1.05 76.5 0 1 -0.93,-0.56 q -2.9,-5.61 -8.71,-9.01 a 0.41,0.41 0 0 1 0.21,-0.77 h 14.4 a 0.55,0.55 0 0 0 0.55,-0.55 z"
     id="path591" />
  <rect
     fill="#27363e"
     x="71.315887"
     y="80.054916"
     transform="rotate(3)"
     width="22.620001"
     height="5.2399998"
     rx="1.73"
     id="rect593" />
  <path
     fill="#27363e"
     d="m 268.17578,112.33592 c 0.02,6.34 2.21,12.77 9.31,13.74 q 6.2,0.85 10.56,-3.42 a 0.77,0.77 0 0 1 1.08,0 l 6.02,6.03 a 0.5,0.5 0 0 1 0.01,0.7 q -6.97,7.03 -16.9,6.76 c -14.34,-0.39 -22.93,-9.37 -22.98,-23.77 -0.06,-14.4 8.47,-23.43 22.8,-23.93 q 9.93,-0.34 16.95,6.63 a 0.5,0.5 0 0 1 0,0.7 l -5.98,6.08 a 0.77,0.77 0 0 1 -1.08,0.01 q -4.39,-4.24 -10.59,-3.35 c -7.08,1.03 -9.23,7.47 -9.2,13.82 z"
     id="path595" />
  <path
     fill="#27363e"
     d="m 491.27578,130.84592 a 0.31,0.3 63.8 0 0 -0.52,-0.18 q -5.16,5.29 -11.66,5.19 c -3.68,-0.06 -5.95,0.07 -8.71,-1.06 q -9.2,-3.74 -7.6,-14.8 c 1.71,-11.81 16.99,-12.57 26.17,-12.48 a 0.64,0.64 0 0 0 0.65,-0.61 q 0.31,-7.88 -7.86,-7.93 -6.79,-0.05 -12.59,2.94 a 1.07,1.07 0 0 1 -1.55,-0.81 l -0.94,-6.95 a 1.91,1.92 74.3 0 1 1.14,-2.02 q 4.6,-1.99 7.73,-2.79 c 12.98,-3.3 26.91,0.67 27.13,16.64 q 0.17,12.72 0.1,28.66 a 0.69,0.69 0 0 1 -0.69,0.69 h -9.42 a 0.9,0.89 85.9 0 1 -0.88,-0.77 z m -2.04,-15.38 q -3.07,-0.12 -6.38,0.26 c -3.95,0.46 -8.34,3.33 -6.72,7.63 2.04,5.42 13.24,2.31 13.57,-3.29 q 0.15,-2.57 0.04,-4.11 a 0.54,0.53 88.8 0 0 -0.51,-0.49 z"
     id="path597" />
  <path
     fill="#27363e"
     d="m 608.10578,111.74592 c 0.33,14.18 -8.02,24.42 -22.9,24.34 -13.99,-0.07 -22.99,-9.51 -23.31,-23.3 -0.32,-14.19 8.03,-24.42 22.91,-24.34 13.99,0.07 22.99,9.5 23.3,23.3 z m -32.52,0.66 c 0.08,6.52 1.45,13.87 9.63,13.76 8.19,-0.1 9.37,-7.48 9.29,-14 -0.08,-6.52 -1.45,-13.87 -9.64,-13.76 -8.18,0.1 -9.36,7.48 -9.28,14 z"
     id="path599" />
  <path
     fill="#27363e"
     d="m 356.78578,115.51592 a 0.48,0.48 0 0 0 -0.48,0.54 c 1.54,11.45 13.25,13.7 21.31,7.38 a 0.68,0.67 48.3 0 1 0.9,0.06 l 5.02,5.02 a 0.71,0.71 0 0 1 0,1 q -5.76,5.71 -14.08,6.39 c -4.31,0.35 -9.31,0.08 -13.18,-1.72 -9.35,-4.35 -13.11,-13.42 -12.66,-23.47 q 0.27,-6.26 2.66,-10.89 c 4.76,-9.24 15.15,-13.35 24.98,-10.65 11.37,3.11 14.51,14.98 13.37,25.76 a 0.65,0.65 0 0 1 -0.65,0.58 z m 0.09,-7.52 16.16,-0.08 a 0.35,0.35 0 0 0 0.34,-0.35 v -0.41 a 9.36,8.24 89.7 0 0 -8.29,-9.32 h -0.38 a 9.36,8.24 89.7 0 0 -8.19,9.4 v 0.41 a 0.35,0.35 0 0 0 0.36,0.35 z"
     id="path601" />
  <path
     fill="#27363e"
     d="m 429.68578,135.33592 h -11.73 a 0.72,0.72 0 0 1 -0.72,-0.72 q 0.11,-24.39 -0.06,-30.09 c -0.1,-3.5 -2.55,-5.51 -6.13,-5.48 q -5.59,0.05 -9.1,5.37 a 1.33,1.31 62.2 0 0 -0.22,0.73 v 29.68 a 0.51,0.51 0 0 1 -0.51,0.51 h -11.74 a 0.65,0.65 0 0 1 -0.65,-0.65 v -45.08 a 0.46,0.47 0 0 1 0.46,-0.47 h 9.98 a 0.55,0.56 86.5 0 1 0.55,0.48 l 0.7,5.2 a 0.24,0.24 0 0 0 0.42,0.12 q 6.92,-8.28 18.39,-5.97 c 8.13,1.64 10.51,7.97 10.6,15.8 q 0.34,29.21 0.4,29.83 a 0.65,0.65 0 0 1 -0.64,0.74 z"
     id="path603" />
  <path
     fill="#27363e"
     d="m 447.48578,95.61592 a 0.27,0.27 0 0 0 0.51,0.09 q 4.14,-7.85 13.45,-6.84 a 0.82,0.83 3.1 0 1 0.73,0.82 v 11.14 a 0.6,0.61 0.9 0 1 -0.62,0.61 c -4.61,-0.09 -8.77,-0.39 -11.73,3.79 q -1.3,1.84 -1.26,6.28 0.14,17.38 0.12,23.17 a 0.7,0.7 0 0 1 -0.7,0.69 h -11.61 a 0.67,0.67 0 0 1 -0.67,-0.67 v -45.06 a 0.55,0.56 0 0 1 0.55,-0.56 h 9.9 a 0.51,0.5 86.1 0 1 0.5,0.44 z"
     id="path605" />
  <rect
     fill="#27363e"
     x="207.11578"
     y="89.095924"
     width="12.66"
     height="46.200001"
     rx="0.43000001"
     id="rect607" />
  <rect
     fill="#27363e"
     x="544.79578"
     y="89.125923"
     width="12.6"
     height="46.200001"
     rx="0.52999997"
     id="rect609" />
  <path
     fill="#27363e"
     d="m 98.74578,144.75592 a 0.5,0.49 74.2 0 1 -0.41,0.74 q -13.5,0.65 -26.34,0.39 c -11.59,-0.24 -14.15,-7.54 -15.78,-18.3 q -1.37,-9.02 -5.44,-31.42 a 0.45,0.45 0 0 1 0.51,-0.52 q 17.37,2.39 36.2,1.22 9.55,-0.59 17.04,-2.51 a 0.24,0.25 89.2 0 1 0.3,0.29 q -5.19,24.33 -7.83,37.31 c -1.09,5.37 -0.91,8.05 1.75,12.8 z m -9.9702,-34.2965 a 3.19,3.19 0 0 0 -3.1956,-3.1844 l -12.52,0.0218 a 3.19,3.19 0 0 0 -3.1844,3.1956 l 4e-4,0.26 a 3.19,3.19 0 0 0 3.1956,3.1844 l 12.52,-0.0218 a 3.19,3.19 0 0 0 3.1844,-3.1956 z m 0.6382,18.8866 a 3.23,3.23 0 0 0 -3.2581,-3.2017 l -11.8595,0.1035 a 3.23,3.23 0 0 0 -3.2017,3.258 l 0.003,0.38 a 3.23,3.23 0 0 0 3.2581,3.2017 l 11.8595,-0.1035 a 3.23,3.23 0 0 0 3.2017,-3.258 z"
     id="path611" />
  <path
     fill="#f99c1e"
     d="m 673.28578,141.09592 a 1.18,1.18 0 0 1 -1.18,-1.18 l 0.03,-9.8 a 2.22,2.22 0 0 0 -2.49,-2.21 l -0.23,0.03 a 2.53,2.54 87.8 0 0 -2.37,2.55 l 0.09,9.38 a 1.32,1.33 89.6 0 1 -1.33,1.34 h -2.65 a 1.26,1.26 0 0 1 -1.26,-1.28 l 0.14,-9.9 a 2.12,2.12 0 0 0 -2.48,-2.12 l -0.09,0.01 a 2.66,2.66 0 0 0 -2.3,2.59 l -0.17,9.75 a 0.95,0.94 0.3 0 1 -0.95,0.93 h -2.95 a 1.06,1.05 0 0 1 -1.06,-1.05 v -15.05 a 0.67,0.67 0 0 1 0.58,-0.66 q 2.15,-0.29 3.54,1 a 0.89,0.89 0 0 0 0.79,0.21 c 0.45,-0.1 1.54,-1.1 2.48,-1.35 q 3.54,-0.94 5.7,1.57 a 0.88,0.88 0 0 0 1.23,0.09 c 4.53,-3.86 9.92,-1.97 10.45,4.29 q 0.54,6.44 0.37,9.62 a 1.31,1.31 0 0 1 -1.31,1.24 z"
     id="path621" />
  <path
     fill="#f99c1e"
     d="m 620.79578,132.73592 c 0.01,3.43 2.21,5.93 5.89,4.31 a 2.55,2.55 0 0 1 2.97,0.69 l 0.11,0.13 a 1.52,1.52 0 0 1 -0.5,2.34 c -6.19,3.01 -13.45,0.21 -13.46,-7.46 -0.02,-7.67 7.23,-10.5 13.44,-7.51 a 1.52,1.52 0 0 1 0.5,2.34 l -0.11,0.13 a 2.55,2.55 0 0 1 -2.96,0.7 c -3.69,-1.6 -5.89,0.91 -5.88,4.33 z"
     id="path623" />
  <path
     fill="#f99c1e"
     d="m 649.14578,132.76592 a 8.79,8.79 0 0 1 -8.79,8.79 8.79,8.79 0 0 1 -8.79,-8.79 8.79,8.79 0 0 1 8.79,-8.79 8.79,8.79 0 0 1 8.79,8.79 z m -8.6162,-5.0073 a 3.78,4.94 1.9 0 0 -3.9417,4.812 3.78,4.94 1.9 0 0 3.6141,5.0626 3.78,4.94 1.9 0 0 3.9417,-4.812 3.78,4.94 1.9 0 0 -3.6141,-5.0626 z"
     id="path625" />
  <circle
     fill="#f99c1e"
     cx="610.07581"
     cy="138.37593"
     r="3.04"
     id="circle631" />
</svg>
